<svg width="378" height="125" viewBox="0 0 378 125" fill="none" xmlns="http://www.w3.org/2000/svg">
<path fill-rule="evenodd" clip-rule="evenodd" d="M70.3391 49.1959C68.5382 75.4507 44.4748 77.933 32.8266 70.9943C17.5426 61.89 20.8417 37.6991 20.9732 17.4945L31.8305 17.4168C32.2409 28.822 29.9678 50.6741 35.0717 58.8918C37.6157 62.9857 43.5883 66.2529 50.4752 63.6312C55.623 61.6749 58.8722 56.82 59.0794 49.5864C61.3505 43.9426 59.2248 25.4353 59.8783 17.5802L70.3391 17.5583V49.1939V49.1959ZM90.0895 90.5414C91.5199 89.2764 91.3824 89.4457 91.3227 85.1168C91.1155 70.0201 91.9163 4.52151 90.4202 1.27627C87.3184 -0.211884 33.8884 0.56307 22.535 0.529204C19.2938 0.517251 3.65124 -0.35532 0.989701 1.4217C-0.227515 8.01976 0.655017 64.8663 0.63111 80.5427C0.627126 82.3357 0.597244 84.1207 0.587283 85.9057C0.555408 91.0992 0.585291 89.7984 1.47977 90.3402L90.0895 90.5394V90.5414Z" fill="#FEFEFE"/>
<path fill-rule="evenodd" clip-rule="evenodd" d="M309.561 17.5422C318.326 17.6658 339.95 15.574 346.217 19.7157C355.682 25.9731 353.771 39.1971 344.89 44.9924C349.797 48.3531 353.458 48.7317 354.518 56.27C357.664 78.6321 328.913 74.084 309.427 73.9565L309.561 17.5422ZM376.384 90.3441C377.962 87.7862 376.988 49.5066 376.982 46.359C376.966 38.3704 377.91 6.53948 376.649 1.53117C374.145 -0.196042 335.387 0.732309 332.495 0.736293C324.775 0.74227 291.175 -0.108387 287.356 1.23035C286.021 4.57321 286.826 74.3709 286.679 85.1306C286.621 89.4536 286.551 89.0631 287.645 90.5593L376.38 90.3441H376.384ZM320.36 41.004C328.096 41.271 341.458 43.5998 341.645 34.2087C341.834 24.6941 332.174 26.8198 320.731 26.9991L320.36 41.004ZM320.388 64.6491C329.022 65.1292 343.189 67.2987 343.703 57.7064C344.257 47.4009 332.497 49.4747 320.43 49.921L320.39 64.6491H320.388Z" fill="#FEFEFE"/>
<path fill-rule="evenodd" clip-rule="evenodd" d="M212.602 17.648C223.272 17.1858 239.006 16.3092 247.668 21.0167C261.787 28.6906 264.191 49.4191 256.936 61.2187C248.001 75.7436 230.687 75.2934 212.498 73.8112L212.604 17.648H212.602ZM223.457 64.199C239.381 66.227 249.718 61.3841 249.738 45.5981C249.756 31.0712 238.853 23.8834 223.423 27.561L223.455 64.197L223.457 64.199ZM191.985 90.4717L281.433 90.2048L281.431 1.19861L192.027 1.32611L191.985 90.4717Z" fill="#FEFEFE"/>
<path fill-rule="evenodd" clip-rule="evenodd" d="M103.644 1.23051L96.4843 1.57914L96.4425 69.9086C96.4345 74.6161 95.295 89.904 97.8111 90.5056L185.837 90.4917L185.795 1.2843L103.644 1.22852V1.23051ZM116.559 73.7355L116.695 17.4727L125.417 17.4687C126.47 18.7038 126.213 18.7955 127.642 19.7736C129.791 23.7161 131.2 25.023 134.29 28.8121C137.905 33.2467 151.406 51.483 154.57 54.033L154.64 17.6022L165.344 17.64L165.521 73.885C151.552 74.2356 157.475 73.3909 144.352 58.2743L127.652 38.2171L127.532 73.8371L116.559 73.7375V73.7355Z" fill="#FEFEFE"/>
<path d="M54.6429 124.996C53.3759 124.996 52.2623 124.717 51.302 124.153C50.3398 123.59 49.5967 122.791 49.0688 121.761C48.5409 120.729 48.2739 119.532 48.2739 118.173V113.151C48.2739 111.794 48.5409 110.595 49.0688 109.565C49.5967 108.535 50.3398 107.736 51.302 107.168C52.2642 106.6 53.3759 106.318 54.6429 106.318C55.6908 106.318 56.657 106.545 57.5375 106.993C58.4181 107.443 59.1532 108.075 59.7448 108.899C60.3385 109.72 60.7369 110.672 60.9481 111.754H58.3145C58.1551 111.182 57.8901 110.672 57.5156 110.226C57.1411 109.774 56.7028 109.431 56.2008 109.186C55.6987 108.945 55.1788 108.822 54.6429 108.822C53.8958 108.822 53.2424 109.001 52.6786 109.364C52.1168 109.724 51.6785 110.23 51.3698 110.88C51.061 111.533 50.9056 112.288 50.9056 113.153V118.175C50.9056 119.03 51.059 119.787 51.3698 120.438C51.6785 121.095 52.1168 121.597 52.6786 121.956C53.2424 122.313 53.8938 122.494 54.6429 122.494C55.1887 122.494 55.7087 122.38 56.2107 122.153C56.7088 121.926 57.1431 121.589 57.5176 121.145C57.8921 120.701 58.1571 120.173 58.3165 119.559H60.9501C60.7389 120.641 60.3365 121.595 59.7389 122.414C59.1472 123.239 58.4081 123.875 57.5276 124.321C56.647 124.771 55.6848 124.996 54.6449 124.996H54.6429Z" fill="#FEFEFE"/>
<path d="M64.3425 106.507H66.9124V124.807H64.3425V106.507ZM65.5876 122.366H76.0983V124.807H65.5876V122.366ZM65.5876 114.501H74.7118V116.942H65.5876V114.501ZM65.5876 106.507H76.0983V108.951H65.5876V106.507Z" fill="#FEFEFE"/>
<path d="M79.7461 106.507H82.0749L91.0218 120.653L90.721 120.978V106.507H93.263V124.793H90.9102L81.9873 110.862L82.2881 110.537V124.793H79.7461V106.507Z" fill="#FEFEFE"/>
<path d="M101.459 108.007H104.023V124.805H101.459V108.007ZM96.283 106.507H109.194V108.951H96.283V106.507Z" fill="#FEFEFE"/>
<path d="M112.834 114.627H119.075C119.56 114.627 119.994 114.509 120.372 114.274C120.751 114.039 121.042 113.706 121.249 113.274C121.45 112.84 121.554 112.346 121.554 111.782C121.554 111.218 121.45 110.722 121.249 110.292C121.042 109.858 120.751 109.523 120.376 109.29C120.008 109.055 119.57 108.937 119.075 108.937H112.834V106.493H118.976C120.032 106.493 120.96 106.712 121.763 107.15C122.562 107.582 123.185 108.202 123.622 109.005C124.064 109.804 124.283 110.732 124.283 111.78C124.283 112.828 124.06 113.752 123.618 114.555C123.171 115.354 122.548 115.973 121.749 116.41C120.946 116.844 120.022 117.063 118.974 117.063H112.832V114.623L112.834 114.627ZM111.712 106.495H114.282V124.807H111.712V106.495ZM117.816 116.499L120.372 115.924L125.054 124.807H122.008L117.814 116.499H117.816Z" fill="#FEFEFE"/>
<path d="M134.067 124.996C132.792 124.996 131.666 124.717 130.69 124.157C129.72 123.6 128.967 122.813 128.431 121.791C127.899 120.773 127.632 119.591 127.632 118.251V113.067C127.632 111.722 127.899 110.541 128.431 109.523C128.969 108.505 129.72 107.716 130.69 107.156C131.666 106.598 132.79 106.318 134.067 106.318C135.338 106.318 136.463 106.596 137.439 107.156C138.409 107.714 139.167 108.505 139.698 109.523C140.23 110.541 140.497 111.722 140.497 113.067V118.251C140.497 119.591 140.23 120.773 139.698 121.791C139.167 122.815 138.409 123.6 137.439 124.157C136.463 124.715 135.34 124.996 134.067 124.996ZM134.067 122.466C134.82 122.466 135.483 122.299 136.061 121.954C136.636 121.613 137.079 121.133 137.391 120.51C137.71 119.882 137.864 119.161 137.864 118.336V112.975C137.864 112.155 137.708 111.427 137.391 110.806C137.079 110.178 136.636 109.698 136.061 109.358C135.485 109.019 134.82 108.846 134.067 108.846C133.31 108.846 132.644 109.017 132.068 109.358C131.493 109.696 131.05 110.178 130.738 110.806C130.419 111.427 130.265 112.155 130.265 112.975V118.336C130.265 119.161 130.421 119.882 130.738 120.51C131.05 121.133 131.493 121.613 132.068 121.954C132.644 122.297 133.31 122.466 134.067 122.466Z" fill="#FEFEFE"/>
<path d="M157.734 124.996C156.381 124.996 155.226 124.729 154.267 124.197C153.305 123.665 152.576 122.886 152.072 121.868C151.566 120.852 151.317 119.621 151.317 118.189V106.509H153.881V118.274C153.881 119.611 154.221 120.643 154.891 121.372C155.56 122.101 156.51 122.468 157.736 122.468C158.969 122.468 159.923 122.101 160.596 121.372C161.276 120.643 161.61 119.609 161.61 118.274V106.509H164.178V118.189C164.178 119.623 163.925 120.852 163.421 121.868C162.917 122.886 162.184 123.665 161.218 124.197C160.256 124.729 159.092 124.996 157.734 124.996Z" fill="#FEFEFE"/>
<path d="M168.202 106.507H170.529L179.478 120.653L179.177 120.978V106.507H181.719V124.793H179.366L170.443 110.862L170.744 110.537V124.793H168.202V106.507Z" fill="#FEFEFE"/>
<path d="M188.815 124.805H186.248V106.507H188.815V124.805Z" fill="#FEFEFE"/>
<path d="M191.965 106.507H194.756L199.151 120.854L203.542 106.507H206.337L200.37 124.805H197.932L191.965 106.507Z" fill="#FEFEFE"/>
<path d="M209.104 106.507H211.673V124.807H209.104V106.507ZM210.349 122.366H220.859V124.807H210.349V122.366ZM210.349 114.501H219.473V116.942H210.349V114.501ZM210.349 106.507H220.859V108.951H210.349V106.507Z" fill="#FEFEFE"/>
<path d="M225.629 114.627H231.87C232.354 114.627 232.789 114.509 233.167 114.274C233.546 114.039 233.837 113.706 234.044 113.274C234.245 112.84 234.349 112.346 234.349 111.782C234.349 111.218 234.245 110.722 234.044 110.292C233.837 109.858 233.546 109.523 233.171 109.29C232.803 109.055 232.364 108.937 231.87 108.937H225.629V106.493H231.771C232.827 106.493 233.755 106.712 234.558 107.15C235.357 107.582 235.98 108.202 236.417 109.005C236.859 109.804 237.078 110.732 237.078 111.78C237.078 112.828 236.855 113.752 236.413 114.555C235.966 115.354 235.343 115.973 234.544 116.41C233.741 116.844 232.817 117.063 231.769 117.063H225.627V114.623L225.629 114.627ZM224.507 106.495H227.077V124.807H224.507V106.495ZM230.611 116.499L233.167 115.924L237.849 124.807H234.803L230.609 116.499H230.611Z" fill="#FEFEFE"/>
<path d="M246.305 124.996C245.425 124.996 244.588 124.91 243.801 124.743C243.01 124.576 242.277 124.325 241.588 123.99C240.905 123.651 240.265 123.233 239.671 122.733L241.269 120.769C241.964 121.37 242.733 121.824 243.57 122.125C244.409 122.426 245.319 122.577 246.301 122.577C247.624 122.577 248.65 122.33 249.381 121.842C250.11 121.354 250.477 120.657 250.477 119.761V119.747C250.477 119.111 250.314 118.603 249.983 118.231C249.648 117.858 249.224 117.583 248.7 117.402C248.176 117.221 247.497 117.055 246.668 116.904C246.642 116.896 246.612 116.892 246.586 116.892C246.556 116.892 246.526 116.888 246.501 116.878L246.315 116.844C245.088 116.633 244.09 116.398 243.325 116.131C242.556 115.864 241.899 115.384 241.353 114.683C240.807 113.983 240.536 112.987 240.536 111.692V111.68C240.536 110.551 240.789 109.585 241.295 108.782C241.803 107.983 242.546 107.367 243.516 106.951C244.49 106.529 245.66 106.319 247.03 106.319C247.684 106.319 248.327 106.393 248.959 106.535C249.594 106.676 250.218 106.891 250.836 107.172C251.449 107.451 252.055 107.808 252.652 108.238L251.192 110.274C250.497 109.762 249.804 109.379 249.108 109.122C248.417 108.869 247.726 108.74 247.028 108.74C245.779 108.74 244.803 108.989 244.112 109.487C243.421 109.987 243.078 110.694 243.078 111.611V111.625C243.078 112.25 243.253 112.744 243.61 113.105C243.967 113.467 244.413 113.734 244.945 113.904C245.477 114.077 246.216 114.256 247.166 114.441C247.2 114.449 247.23 114.453 247.26 114.457C247.289 114.461 247.319 114.469 247.353 114.479C247.393 114.487 247.439 114.497 247.491 114.505C247.542 114.513 247.584 114.519 247.628 114.527C248.736 114.754 249.66 115.025 250.403 115.334C251.146 115.643 251.77 116.147 252.268 116.838C252.766 117.529 253.015 118.476 253.015 119.677V119.703C253.015 120.816 252.752 121.769 252.224 122.564C251.69 123.358 250.927 123.958 249.925 124.376C248.919 124.793 247.712 125 246.295 125L246.305 124.996Z" fill="#FEFEFE"/>
<path d="M258.992 124.805H256.422V106.507H258.992V124.805Z" fill="#FEFEFE"/>
<path d="M267.187 108.007H269.751V124.805H267.187V108.007ZM262.012 106.507H274.923V108.951H262.012V106.507Z" fill="#FEFEFE"/>
<path d="M281.292 106.507H283.48L290.227 124.807H287.456L282.384 110.043L277.316 124.807H274.545L281.294 106.507H281.292ZM277.655 118.35H287.281V120.791H277.655V118.35ZM281.203 103.767L284.677 100.684L286.335 102.405L282.623 105.25L281.201 103.767H281.203Z" fill="#FEFEFE"/>
<path d="M294.116 114.627H300.357C300.842 114.627 301.276 114.509 301.654 114.274C302.033 114.039 302.326 113.706 302.531 113.274C302.732 112.84 302.836 112.346 302.836 111.782C302.836 111.218 302.732 110.722 302.531 110.292C302.324 109.858 302.033 109.523 301.658 109.29C301.29 109.055 300.851 108.937 300.357 108.937H294.116V106.493H300.258C301.314 106.493 302.242 106.712 303.045 107.15C303.844 107.582 304.467 108.202 304.904 109.005C305.346 109.804 305.565 110.732 305.565 111.78C305.565 112.828 305.342 113.752 304.9 114.555C304.453 115.354 303.83 115.973 303.031 116.41C302.228 116.844 301.304 117.063 300.256 117.063H294.114V114.623L294.116 114.627ZM292.994 106.495H295.562V124.807H292.994V106.495ZM299.098 116.499L301.654 115.924L306.336 124.807H303.29L299.098 116.499Z" fill="#FEFEFE"/>
<path d="M312.362 124.805H309.792V106.507H312.362V124.805Z" fill="#FEFEFE"/>
<path d="M322.946 124.996C321.671 124.996 320.546 124.717 319.569 124.157C318.599 123.6 317.846 122.813 317.31 121.791C316.778 120.773 316.511 119.591 316.511 118.251V113.067C316.511 111.722 316.778 110.541 317.31 109.523C317.846 108.505 318.599 107.716 319.569 107.156C320.546 106.598 321.669 106.318 322.946 106.318C324.217 106.318 325.343 106.596 326.319 107.156C327.289 107.714 328.046 108.505 328.578 109.523C329.11 110.541 329.377 111.722 329.377 113.067V118.251C329.377 119.591 329.11 120.773 328.578 121.791C328.046 122.815 327.289 123.6 326.319 124.157C325.343 124.715 324.219 124.996 322.946 124.996ZM322.946 122.466C323.697 122.466 324.363 122.299 324.938 121.954C325.514 121.613 325.956 121.133 326.269 120.51C326.588 119.882 326.741 119.161 326.741 118.336V112.975C326.741 112.155 326.586 111.427 326.269 110.806C325.956 110.178 325.514 109.698 324.938 109.358C324.363 109.019 323.697 108.846 322.946 108.846C322.189 108.846 321.524 109.017 320.948 109.358C320.372 109.696 319.93 110.178 319.617 110.806C319.299 111.427 319.145 112.155 319.145 112.975V118.336C319.145 119.161 319.299 119.882 319.617 120.51C319.93 121.133 320.372 121.613 320.948 121.954C321.524 122.297 322.189 122.466 322.946 122.466Z" fill="#FEFEFE"/>
</svg>
